<svg width="26" height="27" viewBox="0 0 26 27" fill="none" xmlns="http://www.w3.org/2000/svg">
<path d="M10.8117 2.82706L4.33544 7.21868C2.25916 8.62669 2.25916 11.7779 4.33544 13.1859L10.8117 17.5776C11.9736 18.371 13.8885 18.371 15.0504 17.5776L21.4944 13.1859C23.5599 11.7779 23.5599 8.63786 21.4944 7.22986L15.0504 2.83823C13.8885 2.03366 11.9736 2.03366 10.8117 2.82706Z" stroke="white" stroke-width="1.61369" stroke-linecap="round" stroke-linejoin="round"/>
<path d="M6.05672 14.6162L6.04596 19.8571C6.04596 21.2763 7.10024 22.796 8.39119 23.243L11.823 24.4275C12.4147 24.6287 13.3936 24.6287 13.9961 24.4275L17.4279 23.243C18.7188 22.796 19.7731 21.2763 19.7731 19.8571V14.6721" stroke="white" stroke-width="1.61369" stroke-linecap="round" stroke-linejoin="round"/>
<path d="M23.022 16.7619V10.0571" stroke="white" stroke-width="1.61369" stroke-linecap="round" stroke-linejoin="round"/>
</svg>
