<svg width="30" height="30" viewBox="0 0 30 30" fill="none" xmlns="http://www.w3.org/2000/svg">
<path d="M27.0752 13.0492L25.8502 18.2742C24.8002 22.7867 22.7252 24.6117 18.8252 24.2367C18.2002 24.1867 17.5252 24.0742 16.8002 23.8992L14.7002 23.3992C9.48772 22.1617 7.87522 19.5867 9.10022 14.3617L10.3252 9.12416C10.5752 8.06166 10.8752 7.13666 11.2502 6.37416C12.7127 3.34916 15.2002 2.53666 19.3752 3.52416L21.4627 4.01166C26.7002 5.23666 28.3002 7.82415 27.0752 13.0492Z" stroke="black" stroke-width="1.875" stroke-linecap="round" stroke-linejoin="round"/>
<path d="M18.823 24.2365C18.048 24.7615 17.073 25.199 15.8855 25.5865L13.9105 26.2365C8.94798 27.8365 6.33548 26.499 4.72298 21.5365L3.12298 16.599C1.52299 11.6365 2.84798 9.01152 7.81048 7.41152L9.78548 6.76152C10.298 6.59902 10.7855 6.46152 11.248 6.37402C10.873 7.13652 10.573 8.06152 10.323 9.12402L9.09798 14.3615C7.87298 19.5865 9.48548 22.1615 14.698 23.399L16.798 23.899C17.523 24.074 18.198 24.1865 18.823 24.2365Z" stroke="black" stroke-width="1.875" stroke-linecap="round" stroke-linejoin="round"/>
<path d="M15.8008 10.6631L21.8633 12.2006" stroke="black" stroke-width="1.875" stroke-linecap="round" stroke-linejoin="round"/>
<path d="M14.5742 15.5L18.1992 16.425" stroke="black" stroke-width="1.875" stroke-linecap="round" stroke-linejoin="round"/>
</svg>
