<svg width="17" height="17" viewBox="0 0 17 17" fill="none" xmlns="http://www.w3.org/2000/svg">
<path d="M11.0358 8.5C11.0358 9.9025 9.90251 11.0358 8.50001 11.0358C7.09751 11.0358 5.96417 9.9025 5.96417 8.5C5.96417 7.0975 7.09751 5.96416 8.50001 5.96416C9.90251 5.96416 11.0358 7.0975 11.0358 8.5Z" stroke="#642B2B" stroke-width="1.0625" stroke-linecap="round" stroke-linejoin="round"/>
<path d="M8.5 14.3579C11.0004 14.3579 13.3308 12.8846 14.9529 10.3346C15.5904 9.33584 15.5904 7.65708 14.9529 6.65833C13.3308 4.10834 11.0004 2.635 8.5 2.635C5.99958 2.635 3.66916 4.10834 2.04708 6.65833C1.40958 7.65708 1.40958 9.33584 2.04708 10.3346C3.66916 12.8846 5.99958 14.3579 8.5 14.3579Z" stroke="#642B2B" stroke-width="1.0625" stroke-linecap="round" stroke-linejoin="round"/>
</svg>
