<svg width="17" height="17" viewBox="0 0 17 17" fill="none" xmlns="http://www.w3.org/2000/svg">
<path d="M10.2921 6.70791L6.70792 10.2921C6.24751 9.83166 5.96417 9.20125 5.96417 8.5C5.96417 7.0975 7.09751 5.96416 8.50001 5.96416C9.20126 5.96416 9.83167 6.2475 10.2921 6.70791Z" stroke="#642B2B" stroke-width="1.0625" stroke-linecap="round" stroke-linejoin="round"/>
<path d="M12.6225 4.08708C11.3829 3.15208 9.96625 2.64208 8.5 2.64208C5.99958 2.64208 3.66916 4.11541 2.04708 6.66541C1.40958 7.66416 1.40958 9.34291 2.04708 10.3417C2.60666 11.22 3.25833 11.9779 3.96666 12.5871" stroke="#292D32" stroke-width="1.0625" stroke-linecap="round" stroke-linejoin="round"/>
<path d="M5.96417 13.8337C6.77167 14.1737 7.62876 14.3579 8.50001 14.3579C11.0004 14.3579 13.3308 12.8846 14.9529 10.3346C15.5904 9.33583 15.5904 7.65708 14.9529 6.65833C14.7192 6.28999 14.4642 5.94291 14.2021 5.61708" stroke="#292D32" stroke-width="1.0625" stroke-linecap="round" stroke-linejoin="round"/>
<path d="M10.9863 8.99583C10.8021 9.99458 9.9875 10.8092 8.98875 10.9933" stroke="#292D32" stroke-width="1.0625" stroke-linecap="round" stroke-linejoin="round"/>
<path d="M6.70792 10.2921L1.41667 15.5833" stroke="#642B2B" stroke-width="1.0625" stroke-linecap="round" stroke-linejoin="round"/>
<path d="M15.5833 1.41667L10.2921 6.70792" stroke="#642B2B" stroke-width="1.0625" stroke-linecap="round" stroke-linejoin="round"/>
<path d="M8.49989 14.3581C11.0003 14.3581 13.3307 12.8847 14.9528 10.3347C15.5903 9.33598 15.5903 7.65723 14.9528 6.65848C13.3307 4.10848 11.0003 2.63515 8.49989 2.63515C5.99947 2.63515 3.66906 4.10848 2.04697 6.65848C1.40947 7.65723 1.40947 9.33598 2.04697 10.3347C3.66906 12.8847 5.99947 14.3581 8.49989 14.3581Z" stroke="#642B2B" stroke-width="1.0625" stroke-linecap="round" stroke-linejoin="round"/>
<path d="M11.0358 8.49994C11.0358 9.90244 9.90244 11.0358 8.49994 11.0358C7.09744 11.0358 5.96411 9.90244 5.96411 8.49994C5.96411 7.09744 7.09744 5.96411 8.49994 5.96411C9.90244 5.96411 11.0358 7.09744 11.0358 8.49994Z" stroke="#642B2B" stroke-width="1.0625" stroke-linecap="round" stroke-linejoin="round"/>
</svg>
