<svg width="27" height="27" viewBox="0 0 27 27" fill="none" xmlns="http://www.w3.org/2000/svg">
<path d="M19.125 20.7335H14.625L9.61874 24.0634C8.87624 24.5584 7.875 24.0297 7.875 23.1297V20.7335C4.5 20.7335 2.25 18.4835 2.25 15.1085V8.3584C2.25 4.9834 4.5 2.7334 7.875 2.7334H19.125C22.5 2.7334 24.75 4.9834 24.75 8.3584V15.1085C24.75 18.4835 22.5 20.7335 19.125 20.7335Z" stroke="black" stroke-width="1.6875" stroke-miterlimit="10" stroke-linecap="round" stroke-linejoin="round"/>
<path d="M13.5003 12.7803V12.5441C13.5003 11.7791 13.9728 11.374 14.4453 11.0478C14.9066 10.7328 15.3678 10.3278 15.3678 9.58531C15.3678 8.55031 14.5353 7.71777 13.5003 7.71777C12.4653 7.71777 11.6328 8.55031 11.6328 9.58531" stroke="black" stroke-width="1.6875" stroke-linecap="round" stroke-linejoin="round"/>
<path d="M13.4949 15.4688H13.5051" stroke="black" stroke-width="1.6875" stroke-linecap="round" stroke-linejoin="round"/>
</svg>
